<svg width="28" height="32" viewBox="0 0 28 32" fill="none" xmlns="http://www.w3.org/2000/svg">
<path d="M1.12283 12.0835L12.6417 0.56466C12.8201 0.385682 13.032 0.243676 13.2654 0.146779C13.4987 0.0498822 13.7489 1.19723e-06 14.0016 1.17514e-06C14.2543 1.15305e-06 14.5044 0.0498821 14.7378 0.146779C14.9712 0.243676 15.1831 0.385682 15.3614 0.56466L26.8803 12.0835C27.241 12.4442 27.4436 12.9334 27.4436 13.4434C27.4436 13.9535 27.241 14.4426 26.8803 14.8033C26.5197 15.1639 26.0305 15.3665 25.5205 15.3665C25.0104 15.3665 24.5213 15.1639 24.1606 14.8033L15.9198 6.56248L15.9198 30.0802C15.9198 30.5894 15.7175 31.0777 15.3575 31.4377C14.9975 31.7977 14.5091 32 14 32C13.4908 32 13.0025 31.7977 12.6425 31.4377C12.2824 31.0777 12.0802 30.5894 12.0802 30.0802L12.0802 6.56248L3.83937 14.8049C3.47871 15.1655 2.98955 15.3682 2.4795 15.3682C1.96945 15.3682 1.4803 15.1655 1.11964 14.8049C0.758976 14.4442 0.556357 13.9551 0.556357 13.445C0.556357 12.935 0.758976 12.4458 1.11964 12.0851L1.12283 12.0835Z" fill="#401C10"/>
</svg>
