<svg width="32" height="32" viewBox="0 0 32 32" fill="none" xmlns="http://www.w3.org/2000/svg">
<path d="M28.8646 21.8218L24.34 21.3052C23.8079 21.2427 23.2687 21.3016 22.7627 21.4774C22.2567 21.6533 21.7971 21.9416 21.4185 22.3205L18.1408 25.5983C13.0839 23.0264 8.97353 18.916 6.40164 13.8591L9.69716 10.5635C10.4631 9.79756 10.8372 8.72874 10.7125 7.64211L10.1959 3.15308C10.0949 2.28408 9.67791 1.48258 9.02423 0.901161C8.37054 0.319744 7.52587 -0.000976173 6.65103 6.35552e-05H3.56927C1.55633 6.35552e-05 -0.118152 1.67454 0.0065438 3.68749C0.950666 18.9003 13.1174 31.0492 28.3124 31.9933C30.3253 32.118 31.9998 30.4436 31.9998 28.4306V25.3489C32.0176 23.5497 30.6638 22.0355 28.8646 21.8218Z" fill="#401C10"/>
</svg>
