<svg width="42" height="20" viewBox="0 0 42 20" fill="none" xmlns="http://www.w3.org/2000/svg">
<path d="M10.0001 0.968574C10.3053 1.25375 10.4848 1.64847 10.4989 2.06592C10.5131 2.48337 10.3609 2.88936 10.0757 3.19458L5.19952 8.41941H17.325C17.7427 8.41941 18.1433 8.58535 18.4387 8.88072C18.7341 9.17609 18.9 9.5767 18.9 9.99442C18.9 10.4121 18.7341 10.8127 18.4387 11.1081C18.1433 11.4035 17.7427 11.5694 17.325 11.5694H5.19952L10.0757 16.7942C10.2193 16.9449 10.3315 17.1226 10.406 17.3169C10.4805 17.5112 10.5157 17.7184 10.5096 17.9264C10.5036 18.1344 10.4563 18.3392 10.3707 18.5288C10.285 18.7185 10.1626 18.8893 10.0105 19.0314C9.85847 19.1735 9.67976 19.284 9.48473 19.3566C9.28969 19.4292 9.08221 19.4624 8.87426 19.4543C8.6663 19.4463 8.46201 19.3971 8.27319 19.3096C8.08436 19.2221 7.91474 19.0981 7.77414 18.9447L0.424102 11.0696C0.151584 10.7779 0 10.3936 0 9.99442C0 9.59522 0.151584 9.21092 0.424102 8.91921L7.77414 1.04417C8.05931 0.738979 8.45403 0.55956 8.87149 0.545382C9.28894 0.531205 9.69493 0.68343 10.0001 0.968574ZM31.9999 0.968574C31.6947 1.25375 31.5152 1.64847 31.5011 2.06592C31.4869 2.48337 31.6391 2.88936 31.9242 3.19458L36.8005 8.41941H24.675C24.2573 8.41941 23.8567 8.58535 23.5613 8.88072C23.2659 9.17609 23.1 9.5767 23.1 9.99442C23.1 10.4121 23.2659 10.8127 23.5613 11.1081C23.8567 11.4035 24.2573 11.5694 24.675 11.5694H36.8005L31.9242 16.7942C31.7807 16.9449 31.6685 17.1226 31.594 17.3169C31.5195 17.5112 31.4843 17.7184 31.4904 17.9264C31.4964 18.1344 31.5437 18.3392 31.6293 18.5288C31.715 18.7185 31.8374 18.8893 31.9895 19.0314C32.1415 19.1735 32.3202 19.284 32.5153 19.3566C32.7103 19.4292 32.9178 19.4624 33.1257 19.4543C33.3337 19.4463 33.538 19.3971 33.7268 19.3096C33.9156 19.2221 34.0853 19.0981 34.2259 18.9447L41.5759 11.0696C41.8484 10.7779 42 10.3936 42 9.99442C42 9.59522 41.8484 9.21092 41.5759 8.91921L34.2259 1.04417C33.9407 0.738979 33.546 0.55956 33.1285 0.545382C32.7111 0.531205 32.3051 0.68343 31.9999 0.968574Z" fill="#401C10"/>
</svg>
