<svg width="28" height="32" viewBox="0 0 28 32" fill="none" xmlns="http://www.w3.org/2000/svg">
<path d="M26.8771 19.9165L15.3583 31.4353C15.1799 31.6143 14.968 31.7563 14.7346 31.8532C14.5013 31.9501 14.2511 32 13.9984 32C13.7457 32 13.4955 31.9501 13.2622 31.8532C13.0288 31.7563 12.8169 31.6143 12.6385 31.4353L1.11964 19.9165C0.758983 19.5558 0.556366 19.0666 0.556366 18.5566C0.556366 18.0465 0.758983 17.5574 1.11964 17.1967C1.4803 16.8361 1.96946 16.6335 2.47951 16.6335C2.98956 16.6335 3.47872 16.8361 3.83938 17.1967L12.0802 25.4375V1.91981C12.0802 1.41065 12.2824 0.922335 12.6425 0.5623C13.0025 0.202266 13.4908 0 14 0C14.5092 0 14.9975 0.202266 15.3575 0.5623C15.7175 0.922335 15.9198 1.41065 15.9198 1.91981V25.4375L24.1606 17.1951C24.5213 16.8345 25.0104 16.6318 25.5205 16.6318C26.0305 16.6318 26.5197 16.8345 26.8803 17.1951C27.241 17.5558 27.4436 18.0449 27.4436 18.555C27.4436 19.065 27.241 19.5542 26.8803 19.9149L26.8771 19.9165Z" fill="#401C10"/>
</svg>
