<svg width="32" height="26" viewBox="0 0 32 26" fill="none" xmlns="http://www.w3.org/2000/svg">
<path d="M28.8 0.200012H3.2C1.44 0.200012 0.016 1.64001 0.016 3.40001L0 22.6C0 24.36 1.44 25.8 3.2 25.8H28.8C30.56 25.8 32 24.36 32 22.6V3.40001C32 1.64001 30.56 0.200012 28.8 0.200012ZM28.16 7.00001L16.848 14.072C16.336 14.392 15.664 14.392 15.152 14.072L3.84 7.00001C3.67956 6.90995 3.53907 6.78827 3.42702 6.64234C3.31497 6.49641 3.2337 6.32926 3.18812 6.15101C3.14254 5.97275 3.1336 5.78711 3.16185 5.6053C3.1901 5.4235 3.25494 5.24931 3.35245 5.09329C3.44996 4.93727 3.57812 4.80266 3.72916 4.6976C3.8802 4.59255 4.05099 4.51923 4.23119 4.48209C4.41139 4.44495 4.59725 4.44476 4.77753 4.48153C4.9578 4.5183 5.12874 4.59127 5.28 4.69601L16 11.4L26.72 4.69601C26.8713 4.59127 27.0422 4.5183 27.2225 4.48153C27.4027 4.44476 27.5886 4.44495 27.7688 4.48209C27.949 4.51923 28.1198 4.59255 28.2708 4.6976C28.4219 4.80266 28.55 4.93727 28.6476 5.09329C28.7451 5.24931 28.8099 5.4235 28.8382 5.6053C28.8664 5.78711 28.8575 5.97275 28.8119 6.15101C28.7663 6.32926 28.685 6.49641 28.573 6.64234C28.4609 6.78827 28.3204 6.90995 28.16 7.00001Z" fill="#401C10"/>
</svg>
